G04 #@! TF.GenerationSoftware,KiCad,Pcbnew,(5.1.4)-1*
G04 #@! TF.CreationDate,2021-04-10T18:28:28-07:00*
G04 #@! TF.ProjectId,front-panel,66726f6e-742d-4706-916e-656c2e6b6963,rev?*
G04 #@! TF.SameCoordinates,Original*
G04 #@! TF.FileFunction,Soldermask,Top*
G04 #@! TF.FilePolarity,Negative*
%FSLAX46Y46*%
G04 Gerber Fmt 4.6, Leading zero omitted, Abs format (unit mm)*
G04 Created by KiCad (PCBNEW (5.1.4)-1) date 2021-04-10 18:28:28*
%MOMM*%
%LPD*%
G04 APERTURE LIST*
%ADD10C,0.100000*%
G04 APERTURE END LIST*
D10*
G36*
X101196228Y-105793483D02*
G01*
X101384922Y-105850723D01*
X101558815Y-105943671D01*
X101711239Y-106068761D01*
X101836329Y-106221185D01*
X101929277Y-106395078D01*
X101986517Y-106583772D01*
X102005843Y-106780000D01*
X101986517Y-106976228D01*
X101929277Y-107164922D01*
X101836329Y-107338815D01*
X101711239Y-107491239D01*
X101558815Y-107616329D01*
X101384922Y-107709277D01*
X101196228Y-107766517D01*
X101049175Y-107781000D01*
X99950825Y-107781000D01*
X99803772Y-107766517D01*
X99615078Y-107709277D01*
X99441185Y-107616329D01*
X99288761Y-107491239D01*
X99163671Y-107338815D01*
X99070723Y-107164922D01*
X99013483Y-106976228D01*
X98994157Y-106780000D01*
X99013483Y-106583772D01*
X99070723Y-106395078D01*
X99163671Y-106221185D01*
X99288761Y-106068761D01*
X99441185Y-105943671D01*
X99615078Y-105850723D01*
X99803772Y-105793483D01*
X99950825Y-105779000D01*
X101049175Y-105779000D01*
X101196228Y-105793483D01*
X101196228Y-105793483D01*
G37*
G36*
X94126228Y-101113483D02*
G01*
X94314922Y-101170723D01*
X94488815Y-101263671D01*
X94641239Y-101388761D01*
X94766329Y-101541185D01*
X94859277Y-101715078D01*
X94916517Y-101903772D01*
X94931000Y-102050825D01*
X94931000Y-103149175D01*
X94916517Y-103296228D01*
X94859277Y-103484922D01*
X94766329Y-103658815D01*
X94641239Y-103811239D01*
X94488815Y-103936329D01*
X94314921Y-104029277D01*
X94126227Y-104086517D01*
X93930000Y-104105843D01*
X93733772Y-104086517D01*
X93545078Y-104029277D01*
X93371185Y-103936329D01*
X93218761Y-103811239D01*
X93093671Y-103658815D01*
X93000723Y-103484921D01*
X92943483Y-103296227D01*
X92929000Y-103149174D01*
X92929000Y-102050825D01*
X92943483Y-101903769D01*
X93000722Y-101715081D01*
X93093672Y-101541185D01*
X93218762Y-101388761D01*
X93371186Y-101263671D01*
X93545079Y-101170723D01*
X93733773Y-101113483D01*
X93930000Y-101094157D01*
X94126228Y-101113483D01*
X94126228Y-101113483D01*
G37*
G36*
X107266227Y-101113483D02*
G01*
X107454921Y-101170723D01*
X107628815Y-101263671D01*
X107781239Y-101388761D01*
X107906329Y-101541185D01*
X107999277Y-101715078D01*
X108056517Y-101903772D01*
X108071000Y-102050825D01*
X108071000Y-103149175D01*
X108056517Y-103296228D01*
X107999277Y-103484922D01*
X107906329Y-103658815D01*
X107781239Y-103811239D01*
X107628815Y-103936329D01*
X107454922Y-104029277D01*
X107266228Y-104086517D01*
X107070000Y-104105843D01*
X106873773Y-104086517D01*
X106685079Y-104029277D01*
X106511186Y-103936329D01*
X106358762Y-103811239D01*
X106233672Y-103658815D01*
X106140722Y-103484919D01*
X106083483Y-103296231D01*
X106069000Y-103149175D01*
X106069000Y-102050826D01*
X106083483Y-101903773D01*
X106140723Y-101715079D01*
X106233671Y-101541185D01*
X106358761Y-101388761D01*
X106511185Y-101263671D01*
X106685078Y-101170723D01*
X106873772Y-101113483D01*
X107070000Y-101094157D01*
X107266227Y-101113483D01*
X107266227Y-101113483D01*
G37*
G36*
X99704473Y-101325938D02*
G01*
X99832049Y-101378782D01*
X99946859Y-101455495D01*
X100044505Y-101553141D01*
X100121218Y-101667951D01*
X100174062Y-101795527D01*
X100201000Y-101930956D01*
X100201000Y-102069044D01*
X100174062Y-102204473D01*
X100121218Y-102332049D01*
X100044505Y-102446859D01*
X99946859Y-102544505D01*
X99832049Y-102621218D01*
X99704473Y-102674062D01*
X99569044Y-102701000D01*
X99430956Y-102701000D01*
X99295527Y-102674062D01*
X99167951Y-102621218D01*
X99053141Y-102544505D01*
X98955495Y-102446859D01*
X98878782Y-102332049D01*
X98825938Y-102204473D01*
X98799000Y-102069044D01*
X98799000Y-101930956D01*
X98825938Y-101795527D01*
X98878782Y-101667951D01*
X98955495Y-101553141D01*
X99053141Y-101455495D01*
X99167951Y-101378782D01*
X99295527Y-101325938D01*
X99430956Y-101299000D01*
X99569044Y-101299000D01*
X99704473Y-101325938D01*
X99704473Y-101325938D01*
G37*
G36*
X97701000Y-102701000D02*
G01*
X96299000Y-102701000D01*
X96299000Y-101299000D01*
X97701000Y-101299000D01*
X97701000Y-102701000D01*
X97701000Y-102701000D01*
G37*
G36*
X101704473Y-101325938D02*
G01*
X101832049Y-101378782D01*
X101946859Y-101455495D01*
X102044505Y-101553141D01*
X102121218Y-101667951D01*
X102174062Y-101795527D01*
X102201000Y-101930956D01*
X102201000Y-102069044D01*
X102174062Y-102204473D01*
X102121218Y-102332049D01*
X102044505Y-102446859D01*
X101946859Y-102544505D01*
X101832049Y-102621218D01*
X101704473Y-102674062D01*
X101569044Y-102701000D01*
X101430956Y-102701000D01*
X101295527Y-102674062D01*
X101167951Y-102621218D01*
X101053141Y-102544505D01*
X100955495Y-102446859D01*
X100878782Y-102332049D01*
X100825938Y-102204473D01*
X100799000Y-102069044D01*
X100799000Y-101930956D01*
X100825938Y-101795527D01*
X100878782Y-101667951D01*
X100955495Y-101553141D01*
X101053141Y-101455495D01*
X101167951Y-101378782D01*
X101295527Y-101325938D01*
X101430956Y-101299000D01*
X101569044Y-101299000D01*
X101704473Y-101325938D01*
X101704473Y-101325938D01*
G37*
G36*
X104204473Y-101325938D02*
G01*
X104332049Y-101378782D01*
X104446859Y-101455495D01*
X104544505Y-101553141D01*
X104621218Y-101667951D01*
X104674062Y-101795527D01*
X104701000Y-101930956D01*
X104701000Y-102069044D01*
X104674062Y-102204473D01*
X104621218Y-102332049D01*
X104544505Y-102446859D01*
X104446859Y-102544505D01*
X104332049Y-102621218D01*
X104204473Y-102674062D01*
X104069044Y-102701000D01*
X103930956Y-102701000D01*
X103795527Y-102674062D01*
X103667951Y-102621218D01*
X103553141Y-102544505D01*
X103455495Y-102446859D01*
X103378782Y-102332049D01*
X103325938Y-102204473D01*
X103299000Y-102069044D01*
X103299000Y-101930956D01*
X103325938Y-101795527D01*
X103378782Y-101667951D01*
X103455495Y-101553141D01*
X103553141Y-101455495D01*
X103667951Y-101378782D01*
X103795527Y-101325938D01*
X103930956Y-101299000D01*
X104069044Y-101299000D01*
X104204473Y-101325938D01*
X104204473Y-101325938D01*
G37*
G36*
X101719059Y-82277860D02*
G01*
X101855732Y-82334472D01*
X101978735Y-82416660D01*
X102083340Y-82521265D01*
X102165528Y-82644268D01*
X102222140Y-82780941D01*
X102251000Y-82926033D01*
X102251000Y-83073967D01*
X102222140Y-83219059D01*
X102165528Y-83355732D01*
X102083340Y-83478735D01*
X101978735Y-83583340D01*
X101855732Y-83665528D01*
X101855731Y-83665529D01*
X101855730Y-83665529D01*
X101719059Y-83722140D01*
X101573968Y-83751000D01*
X101426032Y-83751000D01*
X101280941Y-83722140D01*
X101144270Y-83665529D01*
X101144269Y-83665529D01*
X101144268Y-83665528D01*
X101021265Y-83583340D01*
X100916660Y-83478735D01*
X100834472Y-83355732D01*
X100777860Y-83219059D01*
X100749000Y-83073967D01*
X100749000Y-82926033D01*
X100777860Y-82780941D01*
X100834472Y-82644268D01*
X100916660Y-82521265D01*
X101021265Y-82416660D01*
X101144268Y-82334472D01*
X101280941Y-82277860D01*
X101426032Y-82249000D01*
X101573968Y-82249000D01*
X101719059Y-82277860D01*
X101719059Y-82277860D01*
G37*
G36*
X99751000Y-83751000D02*
G01*
X98249000Y-83751000D01*
X98249000Y-82249000D01*
X99751000Y-82249000D01*
X99751000Y-83751000D01*
X99751000Y-83751000D01*
G37*
G36*
X86642007Y-77883582D02*
G01*
X87042563Y-78049498D01*
X87042565Y-78049499D01*
X87403056Y-78290371D01*
X87709629Y-78596944D01*
X87922495Y-78915521D01*
X87950502Y-78957437D01*
X88116418Y-79357993D01*
X88201000Y-79783219D01*
X88201000Y-80216781D01*
X88116418Y-80642007D01*
X87957913Y-81024672D01*
X87950501Y-81042565D01*
X87709629Y-81403056D01*
X87403056Y-81709629D01*
X87042565Y-81950501D01*
X87042564Y-81950502D01*
X87042563Y-81950502D01*
X86642007Y-82116418D01*
X86216781Y-82201000D01*
X85783219Y-82201000D01*
X85357993Y-82116418D01*
X84957437Y-81950502D01*
X84957436Y-81950502D01*
X84957435Y-81950501D01*
X84596944Y-81709629D01*
X84290371Y-81403056D01*
X84049499Y-81042565D01*
X84042087Y-81024672D01*
X83883582Y-80642007D01*
X83799000Y-80216781D01*
X83799000Y-79783219D01*
X83883582Y-79357993D01*
X84049498Y-78957437D01*
X84077505Y-78915521D01*
X84290371Y-78596944D01*
X84596944Y-78290371D01*
X84957435Y-78049499D01*
X84957437Y-78049498D01*
X85357993Y-77883582D01*
X85783219Y-77799000D01*
X86216781Y-77799000D01*
X86642007Y-77883582D01*
X86642007Y-77883582D01*
G37*
G36*
X114642007Y-77883582D02*
G01*
X115042563Y-78049498D01*
X115042565Y-78049499D01*
X115403056Y-78290371D01*
X115709629Y-78596944D01*
X115922495Y-78915521D01*
X115950502Y-78957437D01*
X116116418Y-79357993D01*
X116201000Y-79783219D01*
X116201000Y-80216781D01*
X116116418Y-80642007D01*
X115957913Y-81024672D01*
X115950501Y-81042565D01*
X115709629Y-81403056D01*
X115403056Y-81709629D01*
X115042565Y-81950501D01*
X115042564Y-81950502D01*
X115042563Y-81950502D01*
X114642007Y-82116418D01*
X114216781Y-82201000D01*
X113783219Y-82201000D01*
X113357993Y-82116418D01*
X112957437Y-81950502D01*
X112957436Y-81950502D01*
X112957435Y-81950501D01*
X112596944Y-81709629D01*
X112290371Y-81403056D01*
X112049499Y-81042565D01*
X112042087Y-81024672D01*
X111883582Y-80642007D01*
X111799000Y-80216781D01*
X111799000Y-79783219D01*
X111883582Y-79357993D01*
X112049498Y-78957437D01*
X112077505Y-78915521D01*
X112290371Y-78596944D01*
X112596944Y-78290371D01*
X112957435Y-78049499D01*
X112957437Y-78049498D01*
X113357993Y-77883582D01*
X113783219Y-77799000D01*
X114216781Y-77799000D01*
X114642007Y-77883582D01*
X114642007Y-77883582D01*
G37*
G36*
X94532585Y-78768802D02*
G01*
X94682410Y-78798604D01*
X94964674Y-78915521D01*
X95218705Y-79085259D01*
X95434741Y-79301295D01*
X95604479Y-79555326D01*
X95721396Y-79837590D01*
X95781000Y-80137240D01*
X95781000Y-80442760D01*
X95721396Y-80742410D01*
X95604479Y-81024674D01*
X95434741Y-81278705D01*
X95218705Y-81494741D01*
X94964674Y-81664479D01*
X94682410Y-81781396D01*
X94532585Y-81811198D01*
X94382761Y-81841000D01*
X94077239Y-81841000D01*
X93927415Y-81811198D01*
X93777590Y-81781396D01*
X93495326Y-81664479D01*
X93241295Y-81494741D01*
X93025259Y-81278705D01*
X92855521Y-81024674D01*
X92738604Y-80742410D01*
X92679000Y-80442760D01*
X92679000Y-80137240D01*
X92738604Y-79837590D01*
X92855521Y-79555326D01*
X93025259Y-79301295D01*
X93241295Y-79085259D01*
X93495326Y-78915521D01*
X93777590Y-78798604D01*
X93927415Y-78768802D01*
X94077239Y-78739000D01*
X94382761Y-78739000D01*
X94532585Y-78768802D01*
X94532585Y-78768802D01*
G37*
G36*
X106572585Y-78768802D02*
G01*
X106722410Y-78798604D01*
X107004674Y-78915521D01*
X107258705Y-79085259D01*
X107474741Y-79301295D01*
X107644479Y-79555326D01*
X107761396Y-79837590D01*
X107821000Y-80137240D01*
X107821000Y-80442760D01*
X107761396Y-80742410D01*
X107644479Y-81024674D01*
X107474741Y-81278705D01*
X107258705Y-81494741D01*
X107004674Y-81664479D01*
X106722410Y-81781396D01*
X106572585Y-81811198D01*
X106422761Y-81841000D01*
X106117239Y-81841000D01*
X105967415Y-81811198D01*
X105817590Y-81781396D01*
X105535326Y-81664479D01*
X105281295Y-81494741D01*
X105065259Y-81278705D01*
X104895521Y-81024674D01*
X104778604Y-80742410D01*
X104719000Y-80442760D01*
X104719000Y-80137240D01*
X104778604Y-79837590D01*
X104895521Y-79555326D01*
X105065259Y-79301295D01*
X105281295Y-79085259D01*
X105535326Y-78915521D01*
X105817590Y-78798604D01*
X105967415Y-78768802D01*
X106117239Y-78739000D01*
X106422761Y-78739000D01*
X106572585Y-78768802D01*
X106572585Y-78768802D01*
G37*
G36*
X99219059Y-79077860D02*
G01*
X99355732Y-79134472D01*
X99478735Y-79216660D01*
X99583340Y-79321265D01*
X99665528Y-79444268D01*
X99722140Y-79580941D01*
X99751000Y-79726033D01*
X99751000Y-79873967D01*
X99722140Y-80019059D01*
X99665528Y-80155732D01*
X99583340Y-80278735D01*
X99478735Y-80383340D01*
X99355732Y-80465528D01*
X99355731Y-80465529D01*
X99355730Y-80465529D01*
X99219059Y-80522140D01*
X99073968Y-80551000D01*
X98926032Y-80551000D01*
X98780941Y-80522140D01*
X98644270Y-80465529D01*
X98644269Y-80465529D01*
X98644268Y-80465528D01*
X98521265Y-80383340D01*
X98416660Y-80278735D01*
X98334472Y-80155732D01*
X98277860Y-80019059D01*
X98249000Y-79873967D01*
X98249000Y-79726033D01*
X98277860Y-79580941D01*
X98334472Y-79444268D01*
X98416660Y-79321265D01*
X98521265Y-79216660D01*
X98644268Y-79134472D01*
X98780941Y-79077860D01*
X98926032Y-79049000D01*
X99073968Y-79049000D01*
X99219059Y-79077860D01*
X99219059Y-79077860D01*
G37*
G36*
X101719059Y-79077860D02*
G01*
X101855732Y-79134472D01*
X101978735Y-79216660D01*
X102083340Y-79321265D01*
X102165528Y-79444268D01*
X102222140Y-79580941D01*
X102251000Y-79726033D01*
X102251000Y-79873967D01*
X102222140Y-80019059D01*
X102165528Y-80155732D01*
X102083340Y-80278735D01*
X101978735Y-80383340D01*
X101855732Y-80465528D01*
X101855731Y-80465529D01*
X101855730Y-80465529D01*
X101719059Y-80522140D01*
X101573968Y-80551000D01*
X101426032Y-80551000D01*
X101280941Y-80522140D01*
X101144270Y-80465529D01*
X101144269Y-80465529D01*
X101144268Y-80465528D01*
X101021265Y-80383340D01*
X100916660Y-80278735D01*
X100834472Y-80155732D01*
X100777860Y-80019059D01*
X100749000Y-79873967D01*
X100749000Y-79726033D01*
X100777860Y-79580941D01*
X100834472Y-79444268D01*
X100916660Y-79321265D01*
X101021265Y-79216660D01*
X101144268Y-79134472D01*
X101280941Y-79077860D01*
X101426032Y-79049000D01*
X101573968Y-79049000D01*
X101719059Y-79077860D01*
X101719059Y-79077860D01*
G37*
M02*
