G04 #@! TF.GenerationSoftware,KiCad,Pcbnew,(5.1.4)-1*
G04 #@! TF.CreationDate,2021-04-10T18:28:28-07:00*
G04 #@! TF.ProjectId,front-panel,66726f6e-742d-4706-916e-656c2e6b6963,rev?*
G04 #@! TF.SameCoordinates,Original*
G04 #@! TF.FileFunction,Copper,L1,Top*
G04 #@! TF.FilePolarity,Positive*
%FSLAX46Y46*%
G04 Gerber Fmt 4.6, Leading zero omitted, Abs format (unit mm)*
G04 Created by KiCad (PCBNEW (5.1.4)-1) date 2021-04-10 18:28:28*
%MOMM*%
%LPD*%
G04 APERTURE LIST*
%ADD10O,2.900000X1.900000*%
%ADD11O,1.900000X2.900000*%
%ADD12C,1.300000*%
%ADD13R,1.300000X1.300000*%
%ADD14C,1.400000*%
%ADD15C,3.000000*%
%ADD16R,1.400000X1.400000*%
%ADD17C,0.200000*%
%ADD18C,0.375000*%
%ADD19C,0.254000*%
G04 APERTURE END LIST*
D10*
X100500000Y-106780000D03*
D11*
X107070000Y-102600000D03*
X93930000Y-102600000D03*
D12*
X104000000Y-102000000D03*
X101500000Y-102000000D03*
X99500000Y-102000000D03*
D13*
X97000000Y-102000000D03*
D14*
X101500000Y-83000000D03*
D15*
X106270000Y-80290000D03*
D16*
X99000000Y-83000000D03*
D14*
X101500000Y-79800000D03*
X99000000Y-79800000D03*
D15*
X94230000Y-80290000D03*
D17*
X103775000Y-97725000D02*
X99500000Y-102000000D01*
X103775000Y-82093200D02*
X103775000Y-97725000D01*
X103306800Y-81625000D02*
X103775000Y-82093200D01*
X101500000Y-83000000D02*
X102875000Y-81625000D01*
X102875000Y-81625000D02*
X103306800Y-81625000D01*
D18*
X97925000Y-83000000D02*
X97000000Y-83925000D01*
X99000000Y-83000000D02*
X97925000Y-83000000D01*
X97000000Y-83925000D02*
X97000000Y-102000000D01*
D17*
X102875000Y-81175000D02*
X101500000Y-79800000D01*
X103493200Y-81175000D02*
X102875000Y-81175000D01*
X104225000Y-81906800D02*
X103493200Y-81175000D01*
X104225000Y-97911397D02*
X104225000Y-81906800D01*
X101500000Y-102000000D02*
X101500000Y-100636397D01*
X101500000Y-100636397D02*
X104225000Y-97911397D01*
D19*
G36*
X119873000Y-109873000D02*
G01*
X80127000Y-109873000D01*
X80127000Y-106780000D01*
X98407331Y-106780000D01*
X98437934Y-107090714D01*
X98528566Y-107389488D01*
X98675744Y-107664839D01*
X98873813Y-107906187D01*
X99115161Y-108104256D01*
X99390512Y-108251434D01*
X99689286Y-108342066D01*
X99922136Y-108365000D01*
X101077864Y-108365000D01*
X101310714Y-108342066D01*
X101609488Y-108251434D01*
X101884839Y-108104256D01*
X102126187Y-107906187D01*
X102324256Y-107664839D01*
X102471434Y-107389488D01*
X102562066Y-107090714D01*
X102592669Y-106780000D01*
X102562066Y-106469286D01*
X102471434Y-106170512D01*
X102324256Y-105895161D01*
X102126187Y-105653813D01*
X101884839Y-105455744D01*
X101609488Y-105308566D01*
X101310714Y-105217934D01*
X101077864Y-105195000D01*
X99922136Y-105195000D01*
X99689286Y-105217934D01*
X99390512Y-105308566D01*
X99115161Y-105455744D01*
X98873813Y-105653813D01*
X98675744Y-105895161D01*
X98528566Y-106170512D01*
X98437934Y-106469286D01*
X98407331Y-106780000D01*
X80127000Y-106780000D01*
X80127000Y-102022136D01*
X92345000Y-102022136D01*
X92345000Y-103177863D01*
X92367934Y-103410713D01*
X92458566Y-103709487D01*
X92605744Y-103984838D01*
X92803813Y-104226187D01*
X93045161Y-104424256D01*
X93320512Y-104571434D01*
X93619286Y-104662066D01*
X93930000Y-104692669D01*
X94240713Y-104662066D01*
X94539487Y-104571434D01*
X94814838Y-104424256D01*
X95056187Y-104226187D01*
X95254256Y-103984839D01*
X95401434Y-103709488D01*
X95492066Y-103410714D01*
X95515000Y-103177864D01*
X95515000Y-102022136D01*
X95492066Y-101789286D01*
X95401434Y-101490512D01*
X95326329Y-101350000D01*
X95711928Y-101350000D01*
X95711928Y-102650000D01*
X95724188Y-102774482D01*
X95760498Y-102894180D01*
X95819463Y-103004494D01*
X95898815Y-103101185D01*
X95995506Y-103180537D01*
X96105820Y-103239502D01*
X96225518Y-103275812D01*
X96350000Y-103288072D01*
X97650000Y-103288072D01*
X97774482Y-103275812D01*
X97894180Y-103239502D01*
X98004494Y-103180537D01*
X98101185Y-103101185D01*
X98180537Y-103004494D01*
X98239502Y-102894180D01*
X98275812Y-102774482D01*
X98288072Y-102650000D01*
X98288072Y-102432016D01*
X98361247Y-102608676D01*
X98501875Y-102819140D01*
X98680860Y-102998125D01*
X98891324Y-103138753D01*
X99125179Y-103235619D01*
X99373439Y-103285000D01*
X99626561Y-103285000D01*
X99874821Y-103235619D01*
X100108676Y-103138753D01*
X100319140Y-102998125D01*
X100498125Y-102819140D01*
X100500000Y-102816334D01*
X100501875Y-102819140D01*
X100680860Y-102998125D01*
X100891324Y-103138753D01*
X101125179Y-103235619D01*
X101373439Y-103285000D01*
X101626561Y-103285000D01*
X101874821Y-103235619D01*
X102108676Y-103138753D01*
X102319140Y-102998125D01*
X102431738Y-102885527D01*
X103294078Y-102885527D01*
X103347466Y-103114201D01*
X103577374Y-103220095D01*
X103823524Y-103279102D01*
X104076455Y-103288952D01*
X104326449Y-103249270D01*
X104563896Y-103161578D01*
X104652534Y-103114201D01*
X104705922Y-102885527D01*
X104000000Y-102179605D01*
X103294078Y-102885527D01*
X102431738Y-102885527D01*
X102498125Y-102819140D01*
X102638753Y-102608676D01*
X102735619Y-102374821D01*
X102748294Y-102311100D01*
X102750730Y-102326449D01*
X102838422Y-102563896D01*
X102885799Y-102652534D01*
X103114473Y-102705922D01*
X103820395Y-102000000D01*
X104179605Y-102000000D01*
X104885527Y-102705922D01*
X105114201Y-102652534D01*
X105220095Y-102422626D01*
X105279102Y-102176476D01*
X105285112Y-102022137D01*
X105485000Y-102022137D01*
X105485000Y-103177864D01*
X105507934Y-103410714D01*
X105598566Y-103709488D01*
X105745744Y-103984839D01*
X105943814Y-104226187D01*
X106185162Y-104424256D01*
X106460513Y-104571434D01*
X106759287Y-104662066D01*
X107070000Y-104692669D01*
X107380714Y-104662066D01*
X107679488Y-104571434D01*
X107954839Y-104424256D01*
X108196187Y-104226187D01*
X108394256Y-103984839D01*
X108541434Y-103709488D01*
X108632066Y-103410714D01*
X108655000Y-103177864D01*
X108655000Y-102022136D01*
X108632066Y-101789286D01*
X108541434Y-101490512D01*
X108394256Y-101215161D01*
X108196187Y-100973813D01*
X107954838Y-100775744D01*
X107679487Y-100628566D01*
X107380713Y-100537934D01*
X107070000Y-100507331D01*
X106759286Y-100537934D01*
X106460512Y-100628566D01*
X106185161Y-100775744D01*
X105943813Y-100973813D01*
X105745744Y-101215162D01*
X105598566Y-101490513D01*
X105507934Y-101789287D01*
X105485000Y-102022137D01*
X105285112Y-102022137D01*
X105288952Y-101923545D01*
X105249270Y-101673551D01*
X105161578Y-101436104D01*
X105114201Y-101347466D01*
X104885527Y-101294078D01*
X104179605Y-102000000D01*
X103820395Y-102000000D01*
X103114473Y-101294078D01*
X102885799Y-101347466D01*
X102779905Y-101577374D01*
X102750505Y-101700017D01*
X102735619Y-101625179D01*
X102638753Y-101391324D01*
X102498125Y-101180860D01*
X102431738Y-101114473D01*
X103294078Y-101114473D01*
X104000000Y-101820395D01*
X104705922Y-101114473D01*
X104652534Y-100885799D01*
X104422626Y-100779905D01*
X104176476Y-100720898D01*
X103923545Y-100711048D01*
X103673551Y-100750730D01*
X103436104Y-100838422D01*
X103347466Y-100885799D01*
X103294078Y-101114473D01*
X102431738Y-101114473D01*
X102319140Y-101001875D01*
X102235000Y-100945654D01*
X102235000Y-100940843D01*
X104719197Y-98456647D01*
X104747237Y-98433635D01*
X104770250Y-98405594D01*
X104770253Y-98405591D01*
X104795117Y-98375294D01*
X104839087Y-98321717D01*
X104907337Y-98194030D01*
X104949365Y-98055482D01*
X104960000Y-97947502D01*
X104960000Y-97947501D01*
X104963556Y-97911397D01*
X104960000Y-97875292D01*
X104960000Y-81982429D01*
X105258698Y-82182012D01*
X105647244Y-82342953D01*
X106059721Y-82425000D01*
X106480279Y-82425000D01*
X106892756Y-82342953D01*
X107281302Y-82182012D01*
X107630983Y-81948363D01*
X107928363Y-81650983D01*
X108162012Y-81301302D01*
X108322953Y-80912756D01*
X108405000Y-80500279D01*
X108405000Y-80079721D01*
X108334581Y-79725701D01*
X111215000Y-79725701D01*
X111215000Y-80274299D01*
X111322026Y-80812354D01*
X111531965Y-81319192D01*
X111836750Y-81775334D01*
X112224666Y-82163250D01*
X112680808Y-82468035D01*
X113187646Y-82677974D01*
X113725701Y-82785000D01*
X114274299Y-82785000D01*
X114812354Y-82677974D01*
X115319192Y-82468035D01*
X115775334Y-82163250D01*
X116163250Y-81775334D01*
X116468035Y-81319192D01*
X116677974Y-80812354D01*
X116785000Y-80274299D01*
X116785000Y-79725701D01*
X116677974Y-79187646D01*
X116468035Y-78680808D01*
X116163250Y-78224666D01*
X115775334Y-77836750D01*
X115319192Y-77531965D01*
X114812354Y-77322026D01*
X114274299Y-77215000D01*
X113725701Y-77215000D01*
X113187646Y-77322026D01*
X112680808Y-77531965D01*
X112224666Y-77836750D01*
X111836750Y-78224666D01*
X111531965Y-78680808D01*
X111322026Y-79187646D01*
X111215000Y-79725701D01*
X108334581Y-79725701D01*
X108322953Y-79667244D01*
X108162012Y-79278698D01*
X107928363Y-78929017D01*
X107630983Y-78631637D01*
X107281302Y-78397988D01*
X106892756Y-78237047D01*
X106480279Y-78155000D01*
X106059721Y-78155000D01*
X105647244Y-78237047D01*
X105258698Y-78397988D01*
X104909017Y-78631637D01*
X104611637Y-78929017D01*
X104377988Y-79278698D01*
X104217047Y-79667244D01*
X104135000Y-80079721D01*
X104135000Y-80500279D01*
X104203799Y-80846152D01*
X104038458Y-80680812D01*
X104015438Y-80652762D01*
X103903520Y-80560913D01*
X103775833Y-80492663D01*
X103637285Y-80450635D01*
X103529305Y-80440000D01*
X103493200Y-80436444D01*
X103457095Y-80440000D01*
X103179447Y-80440000D01*
X102807779Y-80068333D01*
X102835000Y-79931486D01*
X102835000Y-79668514D01*
X102783696Y-79410595D01*
X102683061Y-79167641D01*
X102536962Y-78948987D01*
X102351013Y-78763038D01*
X102132359Y-78616939D01*
X101889405Y-78516304D01*
X101631486Y-78465000D01*
X101368514Y-78465000D01*
X101110595Y-78516304D01*
X100867641Y-78616939D01*
X100648987Y-78763038D01*
X100463038Y-78948987D01*
X100316939Y-79167641D01*
X100249639Y-79330118D01*
X100208935Y-79218634D01*
X100155037Y-79117797D01*
X99921269Y-79058336D01*
X99179605Y-79800000D01*
X99921269Y-80541664D01*
X100155037Y-80482203D01*
X100251592Y-80274596D01*
X100316939Y-80432359D01*
X100463038Y-80651013D01*
X100648987Y-80836962D01*
X100867641Y-80983061D01*
X101110595Y-81083696D01*
X101368514Y-81135000D01*
X101631486Y-81135000D01*
X101768333Y-81107779D01*
X102060553Y-81400000D01*
X101768333Y-81692221D01*
X101631486Y-81665000D01*
X101368514Y-81665000D01*
X101110595Y-81716304D01*
X100867641Y-81816939D01*
X100648987Y-81963038D01*
X100463038Y-82148987D01*
X100338072Y-82336013D01*
X100338072Y-82300000D01*
X100325812Y-82175518D01*
X100289502Y-82055820D01*
X100230537Y-81945506D01*
X100151185Y-81848815D01*
X100054494Y-81769463D01*
X99944180Y-81710498D01*
X99824482Y-81674188D01*
X99700000Y-81661928D01*
X98300000Y-81661928D01*
X98175518Y-81674188D01*
X98055820Y-81710498D01*
X97945506Y-81769463D01*
X97848815Y-81848815D01*
X97769463Y-81945506D01*
X97710498Y-82055820D01*
X97674188Y-82175518D01*
X97670020Y-82217838D01*
X97608720Y-82236433D01*
X97465833Y-82312808D01*
X97399019Y-82367641D01*
X97340591Y-82415591D01*
X97314839Y-82446970D01*
X96446975Y-83314835D01*
X96415591Y-83340591D01*
X96312808Y-83465834D01*
X96266201Y-83553030D01*
X96236433Y-83608721D01*
X96189402Y-83763762D01*
X96173521Y-83925000D01*
X96177500Y-83965398D01*
X96177501Y-100738754D01*
X96105820Y-100760498D01*
X95995506Y-100819463D01*
X95898815Y-100898815D01*
X95819463Y-100995506D01*
X95760498Y-101105820D01*
X95724188Y-101225518D01*
X95711928Y-101350000D01*
X95326329Y-101350000D01*
X95254256Y-101215161D01*
X95056187Y-100973813D01*
X94814839Y-100775744D01*
X94539488Y-100628566D01*
X94240714Y-100537934D01*
X93930000Y-100507331D01*
X93619287Y-100537934D01*
X93320513Y-100628566D01*
X93045162Y-100775744D01*
X92803814Y-100973813D01*
X92605744Y-101215161D01*
X92458566Y-101490512D01*
X92367934Y-101789286D01*
X92345000Y-102022136D01*
X80127000Y-102022136D01*
X80127000Y-79725701D01*
X83215000Y-79725701D01*
X83215000Y-80274299D01*
X83322026Y-80812354D01*
X83531965Y-81319192D01*
X83836750Y-81775334D01*
X84224666Y-82163250D01*
X84680808Y-82468035D01*
X85187646Y-82677974D01*
X85725701Y-82785000D01*
X86274299Y-82785000D01*
X86812354Y-82677974D01*
X87319192Y-82468035D01*
X87775334Y-82163250D01*
X88163250Y-81775334D01*
X88468035Y-81319192D01*
X88677974Y-80812354D01*
X88785000Y-80274299D01*
X88785000Y-80079721D01*
X92095000Y-80079721D01*
X92095000Y-80500279D01*
X92177047Y-80912756D01*
X92337988Y-81301302D01*
X92571637Y-81650983D01*
X92869017Y-81948363D01*
X93218698Y-82182012D01*
X93607244Y-82342953D01*
X94019721Y-82425000D01*
X94440279Y-82425000D01*
X94852756Y-82342953D01*
X95241302Y-82182012D01*
X95590983Y-81948363D01*
X95888363Y-81650983D01*
X96122012Y-81301302D01*
X96282953Y-80912756D01*
X96321042Y-80721269D01*
X98258336Y-80721269D01*
X98317797Y-80955037D01*
X98556242Y-81065934D01*
X98811740Y-81128183D01*
X99074473Y-81139390D01*
X99334344Y-81099125D01*
X99581366Y-81008935D01*
X99682203Y-80955037D01*
X99741664Y-80721269D01*
X99000000Y-79979605D01*
X98258336Y-80721269D01*
X96321042Y-80721269D01*
X96365000Y-80500279D01*
X96365000Y-80079721D01*
X96324174Y-79874473D01*
X97660610Y-79874473D01*
X97700875Y-80134344D01*
X97791065Y-80381366D01*
X97844963Y-80482203D01*
X98078731Y-80541664D01*
X98820395Y-79800000D01*
X98078731Y-79058336D01*
X97844963Y-79117797D01*
X97734066Y-79356242D01*
X97671817Y-79611740D01*
X97660610Y-79874473D01*
X96324174Y-79874473D01*
X96282953Y-79667244D01*
X96122012Y-79278698D01*
X95888363Y-78929017D01*
X95838077Y-78878731D01*
X98258336Y-78878731D01*
X99000000Y-79620395D01*
X99741664Y-78878731D01*
X99682203Y-78644963D01*
X99443758Y-78534066D01*
X99188260Y-78471817D01*
X98925527Y-78460610D01*
X98665656Y-78500875D01*
X98418634Y-78591065D01*
X98317797Y-78644963D01*
X98258336Y-78878731D01*
X95838077Y-78878731D01*
X95590983Y-78631637D01*
X95241302Y-78397988D01*
X94852756Y-78237047D01*
X94440279Y-78155000D01*
X94019721Y-78155000D01*
X93607244Y-78237047D01*
X93218698Y-78397988D01*
X92869017Y-78631637D01*
X92571637Y-78929017D01*
X92337988Y-79278698D01*
X92177047Y-79667244D01*
X92095000Y-80079721D01*
X88785000Y-80079721D01*
X88785000Y-79725701D01*
X88677974Y-79187646D01*
X88468035Y-78680808D01*
X88163250Y-78224666D01*
X87775334Y-77836750D01*
X87319192Y-77531965D01*
X86812354Y-77322026D01*
X86274299Y-77215000D01*
X85725701Y-77215000D01*
X85187646Y-77322026D01*
X84680808Y-77531965D01*
X84224666Y-77836750D01*
X83836750Y-78224666D01*
X83531965Y-78680808D01*
X83322026Y-79187646D01*
X83215000Y-79725701D01*
X80127000Y-79725701D01*
X80127000Y-70127000D01*
X119873000Y-70127000D01*
X119873000Y-109873000D01*
X119873000Y-109873000D01*
G37*
X119873000Y-109873000D02*
X80127000Y-109873000D01*
X80127000Y-106780000D01*
X98407331Y-106780000D01*
X98437934Y-107090714D01*
X98528566Y-107389488D01*
X98675744Y-107664839D01*
X98873813Y-107906187D01*
X99115161Y-108104256D01*
X99390512Y-108251434D01*
X99689286Y-108342066D01*
X99922136Y-108365000D01*
X101077864Y-108365000D01*
X101310714Y-108342066D01*
X101609488Y-108251434D01*
X101884839Y-108104256D01*
X102126187Y-107906187D01*
X102324256Y-107664839D01*
X102471434Y-107389488D01*
X102562066Y-107090714D01*
X102592669Y-106780000D01*
X102562066Y-106469286D01*
X102471434Y-106170512D01*
X102324256Y-105895161D01*
X102126187Y-105653813D01*
X101884839Y-105455744D01*
X101609488Y-105308566D01*
X101310714Y-105217934D01*
X101077864Y-105195000D01*
X99922136Y-105195000D01*
X99689286Y-105217934D01*
X99390512Y-105308566D01*
X99115161Y-105455744D01*
X98873813Y-105653813D01*
X98675744Y-105895161D01*
X98528566Y-106170512D01*
X98437934Y-106469286D01*
X98407331Y-106780000D01*
X80127000Y-106780000D01*
X80127000Y-102022136D01*
X92345000Y-102022136D01*
X92345000Y-103177863D01*
X92367934Y-103410713D01*
X92458566Y-103709487D01*
X92605744Y-103984838D01*
X92803813Y-104226187D01*
X93045161Y-104424256D01*
X93320512Y-104571434D01*
X93619286Y-104662066D01*
X93930000Y-104692669D01*
X94240713Y-104662066D01*
X94539487Y-104571434D01*
X94814838Y-104424256D01*
X95056187Y-104226187D01*
X95254256Y-103984839D01*
X95401434Y-103709488D01*
X95492066Y-103410714D01*
X95515000Y-103177864D01*
X95515000Y-102022136D01*
X95492066Y-101789286D01*
X95401434Y-101490512D01*
X95326329Y-101350000D01*
X95711928Y-101350000D01*
X95711928Y-102650000D01*
X95724188Y-102774482D01*
X95760498Y-102894180D01*
X95819463Y-103004494D01*
X95898815Y-103101185D01*
X95995506Y-103180537D01*
X96105820Y-103239502D01*
X96225518Y-103275812D01*
X96350000Y-103288072D01*
X97650000Y-103288072D01*
X97774482Y-103275812D01*
X97894180Y-103239502D01*
X98004494Y-103180537D01*
X98101185Y-103101185D01*
X98180537Y-103004494D01*
X98239502Y-102894180D01*
X98275812Y-102774482D01*
X98288072Y-102650000D01*
X98288072Y-102432016D01*
X98361247Y-102608676D01*
X98501875Y-102819140D01*
X98680860Y-102998125D01*
X98891324Y-103138753D01*
X99125179Y-103235619D01*
X99373439Y-103285000D01*
X99626561Y-103285000D01*
X99874821Y-103235619D01*
X100108676Y-103138753D01*
X100319140Y-102998125D01*
X100498125Y-102819140D01*
X100500000Y-102816334D01*
X100501875Y-102819140D01*
X100680860Y-102998125D01*
X100891324Y-103138753D01*
X101125179Y-103235619D01*
X101373439Y-103285000D01*
X101626561Y-103285000D01*
X101874821Y-103235619D01*
X102108676Y-103138753D01*
X102319140Y-102998125D01*
X102431738Y-102885527D01*
X103294078Y-102885527D01*
X103347466Y-103114201D01*
X103577374Y-103220095D01*
X103823524Y-103279102D01*
X104076455Y-103288952D01*
X104326449Y-103249270D01*
X104563896Y-103161578D01*
X104652534Y-103114201D01*
X104705922Y-102885527D01*
X104000000Y-102179605D01*
X103294078Y-102885527D01*
X102431738Y-102885527D01*
X102498125Y-102819140D01*
X102638753Y-102608676D01*
X102735619Y-102374821D01*
X102748294Y-102311100D01*
X102750730Y-102326449D01*
X102838422Y-102563896D01*
X102885799Y-102652534D01*
X103114473Y-102705922D01*
X103820395Y-102000000D01*
X104179605Y-102000000D01*
X104885527Y-102705922D01*
X105114201Y-102652534D01*
X105220095Y-102422626D01*
X105279102Y-102176476D01*
X105285112Y-102022137D01*
X105485000Y-102022137D01*
X105485000Y-103177864D01*
X105507934Y-103410714D01*
X105598566Y-103709488D01*
X105745744Y-103984839D01*
X105943814Y-104226187D01*
X106185162Y-104424256D01*
X106460513Y-104571434D01*
X106759287Y-104662066D01*
X107070000Y-104692669D01*
X107380714Y-104662066D01*
X107679488Y-104571434D01*
X107954839Y-104424256D01*
X108196187Y-104226187D01*
X108394256Y-103984839D01*
X108541434Y-103709488D01*
X108632066Y-103410714D01*
X108655000Y-103177864D01*
X108655000Y-102022136D01*
X108632066Y-101789286D01*
X108541434Y-101490512D01*
X108394256Y-101215161D01*
X108196187Y-100973813D01*
X107954838Y-100775744D01*
X107679487Y-100628566D01*
X107380713Y-100537934D01*
X107070000Y-100507331D01*
X106759286Y-100537934D01*
X106460512Y-100628566D01*
X106185161Y-100775744D01*
X105943813Y-100973813D01*
X105745744Y-101215162D01*
X105598566Y-101490513D01*
X105507934Y-101789287D01*
X105485000Y-102022137D01*
X105285112Y-102022137D01*
X105288952Y-101923545D01*
X105249270Y-101673551D01*
X105161578Y-101436104D01*
X105114201Y-101347466D01*
X104885527Y-101294078D01*
X104179605Y-102000000D01*
X103820395Y-102000000D01*
X103114473Y-101294078D01*
X102885799Y-101347466D01*
X102779905Y-101577374D01*
X102750505Y-101700017D01*
X102735619Y-101625179D01*
X102638753Y-101391324D01*
X102498125Y-101180860D01*
X102431738Y-101114473D01*
X103294078Y-101114473D01*
X104000000Y-101820395D01*
X104705922Y-101114473D01*
X104652534Y-100885799D01*
X104422626Y-100779905D01*
X104176476Y-100720898D01*
X103923545Y-100711048D01*
X103673551Y-100750730D01*
X103436104Y-100838422D01*
X103347466Y-100885799D01*
X103294078Y-101114473D01*
X102431738Y-101114473D01*
X102319140Y-101001875D01*
X102235000Y-100945654D01*
X102235000Y-100940843D01*
X104719197Y-98456647D01*
X104747237Y-98433635D01*
X104770250Y-98405594D01*
X104770253Y-98405591D01*
X104795117Y-98375294D01*
X104839087Y-98321717D01*
X104907337Y-98194030D01*
X104949365Y-98055482D01*
X104960000Y-97947502D01*
X104960000Y-97947501D01*
X104963556Y-97911397D01*
X104960000Y-97875292D01*
X104960000Y-81982429D01*
X105258698Y-82182012D01*
X105647244Y-82342953D01*
X106059721Y-82425000D01*
X106480279Y-82425000D01*
X106892756Y-82342953D01*
X107281302Y-82182012D01*
X107630983Y-81948363D01*
X107928363Y-81650983D01*
X108162012Y-81301302D01*
X108322953Y-80912756D01*
X108405000Y-80500279D01*
X108405000Y-80079721D01*
X108334581Y-79725701D01*
X111215000Y-79725701D01*
X111215000Y-80274299D01*
X111322026Y-80812354D01*
X111531965Y-81319192D01*
X111836750Y-81775334D01*
X112224666Y-82163250D01*
X112680808Y-82468035D01*
X113187646Y-82677974D01*
X113725701Y-82785000D01*
X114274299Y-82785000D01*
X114812354Y-82677974D01*
X115319192Y-82468035D01*
X115775334Y-82163250D01*
X116163250Y-81775334D01*
X116468035Y-81319192D01*
X116677974Y-80812354D01*
X116785000Y-80274299D01*
X116785000Y-79725701D01*
X116677974Y-79187646D01*
X116468035Y-78680808D01*
X116163250Y-78224666D01*
X115775334Y-77836750D01*
X115319192Y-77531965D01*
X114812354Y-77322026D01*
X114274299Y-77215000D01*
X113725701Y-77215000D01*
X113187646Y-77322026D01*
X112680808Y-77531965D01*
X112224666Y-77836750D01*
X111836750Y-78224666D01*
X111531965Y-78680808D01*
X111322026Y-79187646D01*
X111215000Y-79725701D01*
X108334581Y-79725701D01*
X108322953Y-79667244D01*
X108162012Y-79278698D01*
X107928363Y-78929017D01*
X107630983Y-78631637D01*
X107281302Y-78397988D01*
X106892756Y-78237047D01*
X106480279Y-78155000D01*
X106059721Y-78155000D01*
X105647244Y-78237047D01*
X105258698Y-78397988D01*
X104909017Y-78631637D01*
X104611637Y-78929017D01*
X104377988Y-79278698D01*
X104217047Y-79667244D01*
X104135000Y-80079721D01*
X104135000Y-80500279D01*
X104203799Y-80846152D01*
X104038458Y-80680812D01*
X104015438Y-80652762D01*
X103903520Y-80560913D01*
X103775833Y-80492663D01*
X103637285Y-80450635D01*
X103529305Y-80440000D01*
X103493200Y-80436444D01*
X103457095Y-80440000D01*
X103179447Y-80440000D01*
X102807779Y-80068333D01*
X102835000Y-79931486D01*
X102835000Y-79668514D01*
X102783696Y-79410595D01*
X102683061Y-79167641D01*
X102536962Y-78948987D01*
X102351013Y-78763038D01*
X102132359Y-78616939D01*
X101889405Y-78516304D01*
X101631486Y-78465000D01*
X101368514Y-78465000D01*
X101110595Y-78516304D01*
X100867641Y-78616939D01*
X100648987Y-78763038D01*
X100463038Y-78948987D01*
X100316939Y-79167641D01*
X100249639Y-79330118D01*
X100208935Y-79218634D01*
X100155037Y-79117797D01*
X99921269Y-79058336D01*
X99179605Y-79800000D01*
X99921269Y-80541664D01*
X100155037Y-80482203D01*
X100251592Y-80274596D01*
X100316939Y-80432359D01*
X100463038Y-80651013D01*
X100648987Y-80836962D01*
X100867641Y-80983061D01*
X101110595Y-81083696D01*
X101368514Y-81135000D01*
X101631486Y-81135000D01*
X101768333Y-81107779D01*
X102060553Y-81400000D01*
X101768333Y-81692221D01*
X101631486Y-81665000D01*
X101368514Y-81665000D01*
X101110595Y-81716304D01*
X100867641Y-81816939D01*
X100648987Y-81963038D01*
X100463038Y-82148987D01*
X100338072Y-82336013D01*
X100338072Y-82300000D01*
X100325812Y-82175518D01*
X100289502Y-82055820D01*
X100230537Y-81945506D01*
X100151185Y-81848815D01*
X100054494Y-81769463D01*
X99944180Y-81710498D01*
X99824482Y-81674188D01*
X99700000Y-81661928D01*
X98300000Y-81661928D01*
X98175518Y-81674188D01*
X98055820Y-81710498D01*
X97945506Y-81769463D01*
X97848815Y-81848815D01*
X97769463Y-81945506D01*
X97710498Y-82055820D01*
X97674188Y-82175518D01*
X97670020Y-82217838D01*
X97608720Y-82236433D01*
X97465833Y-82312808D01*
X97399019Y-82367641D01*
X97340591Y-82415591D01*
X97314839Y-82446970D01*
X96446975Y-83314835D01*
X96415591Y-83340591D01*
X96312808Y-83465834D01*
X96266201Y-83553030D01*
X96236433Y-83608721D01*
X96189402Y-83763762D01*
X96173521Y-83925000D01*
X96177500Y-83965398D01*
X96177501Y-100738754D01*
X96105820Y-100760498D01*
X95995506Y-100819463D01*
X95898815Y-100898815D01*
X95819463Y-100995506D01*
X95760498Y-101105820D01*
X95724188Y-101225518D01*
X95711928Y-101350000D01*
X95326329Y-101350000D01*
X95254256Y-101215161D01*
X95056187Y-100973813D01*
X94814839Y-100775744D01*
X94539488Y-100628566D01*
X94240714Y-100537934D01*
X93930000Y-100507331D01*
X93619287Y-100537934D01*
X93320513Y-100628566D01*
X93045162Y-100775744D01*
X92803814Y-100973813D01*
X92605744Y-101215161D01*
X92458566Y-101490512D01*
X92367934Y-101789286D01*
X92345000Y-102022136D01*
X80127000Y-102022136D01*
X80127000Y-79725701D01*
X83215000Y-79725701D01*
X83215000Y-80274299D01*
X83322026Y-80812354D01*
X83531965Y-81319192D01*
X83836750Y-81775334D01*
X84224666Y-82163250D01*
X84680808Y-82468035D01*
X85187646Y-82677974D01*
X85725701Y-82785000D01*
X86274299Y-82785000D01*
X86812354Y-82677974D01*
X87319192Y-82468035D01*
X87775334Y-82163250D01*
X88163250Y-81775334D01*
X88468035Y-81319192D01*
X88677974Y-80812354D01*
X88785000Y-80274299D01*
X88785000Y-80079721D01*
X92095000Y-80079721D01*
X92095000Y-80500279D01*
X92177047Y-80912756D01*
X92337988Y-81301302D01*
X92571637Y-81650983D01*
X92869017Y-81948363D01*
X93218698Y-82182012D01*
X93607244Y-82342953D01*
X94019721Y-82425000D01*
X94440279Y-82425000D01*
X94852756Y-82342953D01*
X95241302Y-82182012D01*
X95590983Y-81948363D01*
X95888363Y-81650983D01*
X96122012Y-81301302D01*
X96282953Y-80912756D01*
X96321042Y-80721269D01*
X98258336Y-80721269D01*
X98317797Y-80955037D01*
X98556242Y-81065934D01*
X98811740Y-81128183D01*
X99074473Y-81139390D01*
X99334344Y-81099125D01*
X99581366Y-81008935D01*
X99682203Y-80955037D01*
X99741664Y-80721269D01*
X99000000Y-79979605D01*
X98258336Y-80721269D01*
X96321042Y-80721269D01*
X96365000Y-80500279D01*
X96365000Y-80079721D01*
X96324174Y-79874473D01*
X97660610Y-79874473D01*
X97700875Y-80134344D01*
X97791065Y-80381366D01*
X97844963Y-80482203D01*
X98078731Y-80541664D01*
X98820395Y-79800000D01*
X98078731Y-79058336D01*
X97844963Y-79117797D01*
X97734066Y-79356242D01*
X97671817Y-79611740D01*
X97660610Y-79874473D01*
X96324174Y-79874473D01*
X96282953Y-79667244D01*
X96122012Y-79278698D01*
X95888363Y-78929017D01*
X95838077Y-78878731D01*
X98258336Y-78878731D01*
X99000000Y-79620395D01*
X99741664Y-78878731D01*
X99682203Y-78644963D01*
X99443758Y-78534066D01*
X99188260Y-78471817D01*
X98925527Y-78460610D01*
X98665656Y-78500875D01*
X98418634Y-78591065D01*
X98317797Y-78644963D01*
X98258336Y-78878731D01*
X95838077Y-78878731D01*
X95590983Y-78631637D01*
X95241302Y-78397988D01*
X94852756Y-78237047D01*
X94440279Y-78155000D01*
X94019721Y-78155000D01*
X93607244Y-78237047D01*
X93218698Y-78397988D01*
X92869017Y-78631637D01*
X92571637Y-78929017D01*
X92337988Y-79278698D01*
X92177047Y-79667244D01*
X92095000Y-80079721D01*
X88785000Y-80079721D01*
X88785000Y-79725701D01*
X88677974Y-79187646D01*
X88468035Y-78680808D01*
X88163250Y-78224666D01*
X87775334Y-77836750D01*
X87319192Y-77531965D01*
X86812354Y-77322026D01*
X86274299Y-77215000D01*
X85725701Y-77215000D01*
X85187646Y-77322026D01*
X84680808Y-77531965D01*
X84224666Y-77836750D01*
X83836750Y-78224666D01*
X83531965Y-78680808D01*
X83322026Y-79187646D01*
X83215000Y-79725701D01*
X80127000Y-79725701D01*
X80127000Y-70127000D01*
X119873000Y-70127000D01*
X119873000Y-109873000D01*
M02*
