M48
; DRILL file {KiCad (6.0.1)} date Mon Feb 21 22:15:11 2022
; FORMAT={-:-/ absolute / inch / decimal}
; #@! TF.CreationDate,2022-02-21T22:15:11-08:00
; #@! TF.GenerationSoftware,Kicad,Pcbnew,(6.0.1)
; #@! TF.FileFunction,Plated,1,2,PTH
FMAT,2
INCH
; #@! TA.AperFunction,Plated,PTH,ComponentDrill
T1C0.0394
; #@! TA.AperFunction,Plated,PTH,ComponentDrill
T2C0.0402
; #@! TA.AperFunction,Plated,PTH,ComponentDrill
T3C0.0417
%
G90
G05
T1
X6.065Y-4.6075
X6.165Y-4.6075
X6.265Y-4.6075
X6.4796Y-4.151
X6.5796Y-4.151
X6.5808Y-4.609
X6.6796Y-4.151
X6.6808Y-4.609
X6.7796Y-4.151
X6.8Y-3.591
X6.9Y-3.591
X7.0Y-3.591
X7.52Y-4.605
X7.62Y-4.605
X7.72Y-4.605
T2
X6.55Y-1.275
X6.55Y-1.375
X6.55Y-1.475
X6.55Y-1.575
X6.55Y-1.675
X6.55Y-1.775
X6.55Y-1.875
X6.55Y-1.975
X6.55Y-2.075
X6.55Y-2.175
X6.55Y-2.275
X6.55Y-2.375
X6.55Y-2.475
X6.55Y-2.575
X6.55Y-2.675
X6.55Y-2.775
X6.55Y-2.875
X6.55Y-2.975
X6.55Y-3.075
X6.55Y-3.175
X6.8Y-3.1659
X6.9Y-3.1659
X7.0Y-3.1659
X7.25Y-1.275
X7.25Y-1.375
X7.25Y-1.475
X7.25Y-1.575
X7.25Y-1.675
X7.25Y-1.775
X7.25Y-1.875
X7.25Y-1.975
X7.25Y-2.075
X7.25Y-2.175
X7.25Y-2.275
X7.25Y-2.375
X7.25Y-2.475
X7.25Y-2.575
X7.25Y-2.675
X7.25Y-2.775
X7.25Y-2.875
X7.25Y-2.975
X7.25Y-3.075
X7.25Y-3.175
T3
X6.14Y-1.65
X6.14Y-1.7484
X6.14Y-1.8469
X6.14Y-1.9453
X6.14Y-2.22
X6.14Y-2.3184
X6.14Y-2.4169
X6.14Y-2.5153
X6.14Y-2.82
X6.14Y-2.9184
X6.14Y-3.0169
X6.14Y-3.1153
X6.14Y-3.42
X6.14Y-3.5184
X6.14Y-3.6169
X6.14Y-3.7153
X6.1407Y-4.02
X6.1407Y-4.1184
X6.1407Y-4.2169
X6.1407Y-4.3153
X6.7529Y-3.8493
X6.8513Y-3.8493
X6.9497Y-3.8493
X7.0482Y-3.8493
X7.6493Y-1.6297
X7.6493Y-1.7281
X7.6493Y-1.8266
X7.6493Y-1.925
X7.6493Y-2.2297
X7.6493Y-2.3281
X7.6493Y-2.4266
X7.6493Y-2.525
X7.6493Y-2.8297
X7.6493Y-2.9281
X7.6493Y-3.0266
X7.6493Y-3.125
X7.65Y-3.4418
X7.65Y-3.5403
X7.65Y-3.6387
X7.65Y-3.7371
X7.65Y-4.0168
X7.65Y-4.1153
X7.65Y-4.2137
X7.65Y-4.3121
T0
M30
