G04 #@! TF.GenerationSoftware,KiCad,Pcbnew,(6.0.1)*
G04 #@! TF.CreationDate,2022-02-21T22:15:09-08:00*
G04 #@! TF.ProjectId,pico-pcb,7069636f-2d70-4636-922e-6b696361645f,rev?*
G04 #@! TF.SameCoordinates,Original*
G04 #@! TF.FileFunction,Soldermask,Top*
G04 #@! TF.FilePolarity,Negative*
%FSLAX46Y46*%
G04 Gerber Fmt 4.6, Leading zero omitted, Abs format (unit mm)*
G04 Created by KiCad (PCBNEW (6.0.1)) date 2022-02-21 22:15:09*
%MOMM*%
%LPD*%
G01*
G04 APERTURE LIST*
G04 Aperture macros list*
%AMRoundRect*
0 Rectangle with rounded corners*
0 $1 Rounding radius*
0 $2 $3 $4 $5 $6 $7 $8 $9 X,Y pos of 4 corners*
0 Add a 4 corners polygon primitive as box body*
4,1,4,$2,$3,$4,$5,$6,$7,$8,$9,$2,$3,0*
0 Add four circle primitives for the rounded corners*
1,1,$1+$1,$2,$3*
1,1,$1+$1,$4,$5*
1,1,$1+$1,$6,$7*
1,1,$1+$1,$8,$9*
0 Add four rect primitives between the rounded corners*
20,1,$1+$1,$2,$3,$4,$5,0*
20,1,$1+$1,$4,$5,$6,$7,0*
20,1,$1+$1,$6,$7,$8,$9,0*
20,1,$1+$1,$8,$9,$2,$3,0*%
G04 Aperture macros list end*
%ADD10RoundRect,0.051000X-0.795000X0.795000X-0.795000X-0.795000X0.795000X-0.795000X0.795000X0.795000X0*%
%ADD11C,1.692000*%
%ADD12RoundRect,0.051000X0.795000X-0.795000X0.795000X0.795000X-0.795000X0.795000X-0.795000X-0.795000X0*%
%ADD13RoundRect,0.051000X-0.795000X-0.795000X0.795000X-0.795000X0.795000X0.795000X-0.795000X0.795000X0*%
%ADD14O,1.802000X1.802000*%
%ADD15RoundRect,0.051000X0.850000X-1.750000X0.850000X1.750000X-0.850000X1.750000X-0.850000X-1.750000X0*%
%ADD16RoundRect,0.051000X-0.850000X-0.850000X0.850000X-0.850000X0.850000X0.850000X-0.850000X0.850000X0*%
%ADD17RoundRect,0.051000X-1.750000X-0.850000X1.750000X-0.850000X1.750000X0.850000X-1.750000X0.850000X0*%
%ADD18O,1.602000X1.602000*%
%ADD19O,1.902000X1.902000*%
%ADD20RoundRect,0.051000X-0.850000X0.850000X-0.850000X-0.850000X0.850000X-0.850000X0.850000X0.850000X0*%
%ADD21RoundRect,0.051000X0.850000X-0.850000X0.850000X0.850000X-0.850000X0.850000X-0.850000X-0.850000X0*%
%ADD22C,4.402000*%
G04 APERTURE END LIST*
D10*
X155956000Y-41910000D03*
D11*
X155956000Y-44410000D03*
X155956000Y-46910000D03*
X155956000Y-49410000D03*
D10*
X155956000Y-56388000D03*
D11*
X155956000Y-58888000D03*
X155956000Y-61388000D03*
X155956000Y-63888000D03*
D10*
X155956000Y-71628000D03*
D11*
X155956000Y-74128000D03*
X155956000Y-76628000D03*
X155956000Y-79128000D03*
D10*
X155956000Y-86868000D03*
D11*
X155956000Y-89368000D03*
X155956000Y-91868000D03*
X155956000Y-94368000D03*
D10*
X155973000Y-102108000D03*
D11*
X155973000Y-104608000D03*
X155973000Y-107108000D03*
X155973000Y-109608000D03*
D12*
X194293000Y-48895000D03*
D11*
X194293000Y-46395000D03*
X194293000Y-43895000D03*
X194293000Y-41395000D03*
D12*
X194293000Y-64135000D03*
D11*
X194293000Y-61635000D03*
X194293000Y-59135000D03*
X194293000Y-56635000D03*
D12*
X194293000Y-79375000D03*
D11*
X194293000Y-76875000D03*
X194293000Y-74375000D03*
X194293000Y-71875000D03*
D12*
X194310000Y-94922500D03*
D11*
X194310000Y-92422500D03*
X194310000Y-89922500D03*
X194310000Y-87422500D03*
D12*
X194310000Y-109527500D03*
D11*
X194310000Y-107027500D03*
X194310000Y-104527500D03*
X194310000Y-102027500D03*
X179023500Y-97773000D03*
X176523500Y-97773000D03*
X174023500Y-97773000D03*
D13*
X171523500Y-97773000D03*
D14*
X177800000Y-80415000D03*
D15*
X177800000Y-81315000D03*
D16*
X175260000Y-80415000D03*
D15*
X175260000Y-81315000D03*
X172720000Y-81315000D03*
D14*
X172720000Y-80415000D03*
X184150000Y-32385000D03*
D17*
X185050000Y-32385000D03*
D14*
X184150000Y-34925000D03*
D17*
X185050000Y-34925000D03*
D16*
X184150000Y-37465000D03*
D17*
X185050000Y-37465000D03*
X185050000Y-40005000D03*
D14*
X184150000Y-40005000D03*
D17*
X185050000Y-42545000D03*
D14*
X184150000Y-42545000D03*
D17*
X185050000Y-45085000D03*
D14*
X184150000Y-45085000D03*
D17*
X185050000Y-47625000D03*
D14*
X184150000Y-47625000D03*
D16*
X184150000Y-50165000D03*
D17*
X185050000Y-50165000D03*
D14*
X184150000Y-52705000D03*
D17*
X185050000Y-52705000D03*
X185050000Y-55245000D03*
D14*
X184150000Y-55245000D03*
D17*
X185050000Y-57785000D03*
D14*
X184150000Y-57785000D03*
D17*
X185050000Y-60325000D03*
D14*
X184150000Y-60325000D03*
D16*
X184150000Y-62865000D03*
D17*
X185050000Y-62865000D03*
D14*
X184150000Y-65405000D03*
D17*
X185050000Y-65405000D03*
X185050000Y-67945000D03*
D14*
X184150000Y-67945000D03*
D17*
X185050000Y-70485000D03*
D14*
X184150000Y-70485000D03*
X184150000Y-73025000D03*
D17*
X185050000Y-73025000D03*
D16*
X184150000Y-75565000D03*
D17*
X185050000Y-75565000D03*
D14*
X184150000Y-78105000D03*
D17*
X185050000Y-78105000D03*
D14*
X184150000Y-80645000D03*
D17*
X185050000Y-80645000D03*
X165470000Y-80645000D03*
D14*
X166370000Y-80645000D03*
X166370000Y-78105000D03*
D17*
X165470000Y-78105000D03*
X165470000Y-75565000D03*
D16*
X166370000Y-75565000D03*
D17*
X165470000Y-73025000D03*
D14*
X166370000Y-73025000D03*
X166370000Y-70485000D03*
D17*
X165470000Y-70485000D03*
X165470000Y-67945000D03*
D14*
X166370000Y-67945000D03*
X166370000Y-65405000D03*
D17*
X165470000Y-65405000D03*
X165470000Y-62865000D03*
D16*
X166370000Y-62865000D03*
D14*
X166370000Y-60325000D03*
D17*
X165470000Y-60325000D03*
X165470000Y-57785000D03*
D14*
X166370000Y-57785000D03*
D17*
X165470000Y-55245000D03*
D14*
X166370000Y-55245000D03*
X166370000Y-52705000D03*
D17*
X165470000Y-52705000D03*
D16*
X166370000Y-50165000D03*
D17*
X165470000Y-50165000D03*
D14*
X166370000Y-47625000D03*
D17*
X165470000Y-47625000D03*
D14*
X166370000Y-45085000D03*
D17*
X165470000Y-45085000D03*
D14*
X166370000Y-42545000D03*
D17*
X165470000Y-42545000D03*
D14*
X166370000Y-40005000D03*
D17*
X165470000Y-40005000D03*
X165470000Y-37465000D03*
D16*
X166370000Y-37465000D03*
D14*
X166370000Y-34925000D03*
D17*
X165470000Y-34925000D03*
D14*
X166370000Y-32385000D03*
D17*
X165470000Y-32385000D03*
D18*
X177685000Y-35545000D03*
D19*
X172535000Y-32515000D03*
D18*
X172835000Y-35545000D03*
D19*
X177985000Y-32515000D03*
D20*
X196088000Y-116967000D03*
D14*
X193548000Y-116967000D03*
X191008000Y-116967000D03*
D21*
X154051000Y-117030500D03*
D14*
X156591000Y-117030500D03*
X159131000Y-117030500D03*
D21*
X167152000Y-117069000D03*
D14*
X169692000Y-117069000D03*
D20*
X177800000Y-91211000D03*
D14*
X175260000Y-91211000D03*
X172720000Y-91211000D03*
D20*
X172202000Y-105435000D03*
D14*
X169662000Y-105435000D03*
X167122000Y-105435000D03*
X164582000Y-105435000D03*
D22*
X154000000Y-34000000D03*
X154000000Y-126000000D03*
X196000000Y-34000000D03*
X196000000Y-126000000D03*
M02*
